<mxfile host="app.diagrams.net" modified="2023-09-11T16:36:50.609Z" agent="Mozilla/5.0 (Windows NT 10.0; Win64; x64) AppleWebKit/537.36 (KHTML, like Gecko) Chrome/116.0.0.0 Safari/537.36" etag="JVJ7faLnaeyPAU6u4hQq" version="21.7.4" type="github">
  <diagram name="Page-1" id="mVXIuOujIWSNxdiBwmz4">
    <mxGraphModel dx="1951" dy="1073" grid="1" gridSize="10" guides="1" tooltips="1" connect="1" arrows="1" fold="1" page="1" pageScale="1" pageWidth="850" pageHeight="1100" math="0" shadow="0">
      <root>
        <mxCell id="0" />
        <mxCell id="1" parent="0" />
        <mxCell id="NkPuISbnbZMCQpkVhxEq-23" value="&lt;font style=&quot;font-size: 24px;&quot;&gt;&lt;br&gt;&lt;br&gt;&lt;br&gt;&lt;br&gt;&lt;br&gt;&lt;br&gt;&lt;br&gt;&lt;br&gt;&lt;br&gt;&lt;br&gt;&lt;br&gt;&lt;br&gt;&lt;br&gt;&lt;br&gt;&lt;br&gt;&lt;br&gt;&lt;br&gt;&lt;br&gt;&lt;br&gt;&lt;br&gt;&lt;br&gt;&lt;br&gt;&lt;br&gt;&lt;br&gt;&lt;br&gt;&lt;br&gt;&lt;br&gt;&lt;br&gt;&lt;br&gt;&lt;br&gt;Identity Management&lt;/font&gt;" style="whiteSpace=wrap;html=1;aspect=fixed;" parent="1" vertex="1">
          <mxGeometry x="120" y="200" width="710" height="710" as="geometry" />
        </mxCell>
        <mxCell id="NkPuISbnbZMCQpkVhxEq-20" value="&lt;font style=&quot;font-size: 18px;&quot;&gt;OpenLDAP&lt;/font&gt;" style="rhombus;whiteSpace=wrap;html=1;" parent="1" vertex="1">
          <mxGeometry x="290" y="390" width="320" height="380" as="geometry" />
        </mxCell>
        <mxCell id="NkPuISbnbZMCQpkVhxEq-2" value="HR Database" style="ellipse;whiteSpace=wrap;html=1;" parent="1" vertex="1">
          <mxGeometry x="210" y="300" width="120" height="80" as="geometry" />
        </mxCell>
        <mxCell id="NkPuISbnbZMCQpkVhxEq-3" value="Identity &lt;br&gt;Management\" style="ellipse;whiteSpace=wrap;html=1;" parent="1" vertex="1">
          <mxGeometry x="580" y="300" width="120" height="80" as="geometry" />
        </mxCell>
        <mxCell id="NkPuISbnbZMCQpkVhxEq-4" value="Business Applicaitons" style="ellipse;whiteSpace=wrap;html=1;" parent="1" vertex="1">
          <mxGeometry x="210" y="710" width="120" height="80" as="geometry" />
        </mxCell>
        <mxCell id="NkPuISbnbZMCQpkVhxEq-5" value="Audit and Compliance" style="ellipse;whiteSpace=wrap;html=1;" parent="1" vertex="1">
          <mxGeometry x="580" y="710" width="120" height="80" as="geometry" />
        </mxCell>
        <mxCell id="NkPuISbnbZMCQpkVhxEq-6" value="Single Sign On" style="ellipse;whiteSpace=wrap;html=1;" parent="1" vertex="1">
          <mxGeometry x="670" y="550" width="120" height="80" as="geometry" />
        </mxCell>
        <mxCell id="NkPuISbnbZMCQpkVhxEq-8" value="Audit&lt;br&gt;Logs" style="ellipse;whiteSpace=wrap;html=1;" parent="1" vertex="1">
          <mxGeometry x="380" y="630" width="60" height="40" as="geometry" />
        </mxCell>
        <mxCell id="NkPuISbnbZMCQpkVhxEq-12" value="" style="endArrow=classic;html=1;rounded=0;entryX=1;entryY=0.5;entryDx=0;entryDy=0;exitX=0.025;exitY=0.375;exitDx=0;exitDy=0;exitPerimeter=0;" parent="1" source="NkPuISbnbZMCQpkVhxEq-6" target="NkPuISbnbZMCQpkVhxEq-20" edge="1">
          <mxGeometry width="50" height="50" relative="1" as="geometry">
            <mxPoint x="650" y="500" as="sourcePoint" />
            <mxPoint x="595.94" y="499.9100000000001" as="targetPoint" />
          </mxGeometry>
        </mxCell>
        <mxCell id="NkPuISbnbZMCQpkVhxEq-14" value="DIT" style="ellipse;whiteSpace=wrap;html=1;" parent="1" vertex="1">
          <mxGeometry x="470" y="485" width="60" height="50" as="geometry" />
        </mxCell>
        <mxCell id="NkPuISbnbZMCQpkVhxEq-15" value="JNDI/TLS" style="ellipse;whiteSpace=wrap;html=1;" parent="1" vertex="1">
          <mxGeometry x="460" y="620" width="60" height="50" as="geometry" />
        </mxCell>
        <mxCell id="NkPuISbnbZMCQpkVhxEq-17" value="" style="endArrow=classic;html=1;rounded=0;exitX=0.5;exitY=0;exitDx=0;exitDy=0;entryX=0.772;entryY=0.75;entryDx=0;entryDy=0;entryPerimeter=0;" parent="1" source="NkPuISbnbZMCQpkVhxEq-5" target="NkPuISbnbZMCQpkVhxEq-20" edge="1">
          <mxGeometry width="50" height="50" relative="1" as="geometry">
            <mxPoint x="179" y="800" as="sourcePoint" />
            <mxPoint x="590" y="680" as="targetPoint" />
          </mxGeometry>
        </mxCell>
        <mxCell id="NkPuISbnbZMCQpkVhxEq-7" value="ACLs" style="ellipse;whiteSpace=wrap;html=1;" parent="1" vertex="1">
          <mxGeometry x="380" y="485" width="60" height="50" as="geometry" />
        </mxCell>
        <mxCell id="NkPuISbnbZMCQpkVhxEq-21" value="" style="endArrow=classic;startArrow=classic;html=1;rounded=0;entryX=0.5;entryY=1;entryDx=0;entryDy=0;exitX=1;exitY=0;exitDx=0;exitDy=0;" parent="1" source="NkPuISbnbZMCQpkVhxEq-20" target="NkPuISbnbZMCQpkVhxEq-3" edge="1">
          <mxGeometry width="50" height="50" relative="1" as="geometry">
            <mxPoint x="530" y="470" as="sourcePoint" />
            <mxPoint x="580" y="420" as="targetPoint" />
          </mxGeometry>
        </mxCell>
        <mxCell id="NkPuISbnbZMCQpkVhxEq-28" value="Client&lt;br&gt;Tools" style="ellipse;whiteSpace=wrap;html=1;" parent="1" vertex="1">
          <mxGeometry x="330" y="555" width="60" height="50" as="geometry" />
        </mxCell>
        <mxCell id="NkPuISbnbZMCQpkVhxEq-29" value="API" style="ellipse;whiteSpace=wrap;html=1;" parent="1" vertex="1">
          <mxGeometry x="520" y="555" width="60" height="50" as="geometry" />
        </mxCell>
        <mxCell id="NkPuISbnbZMCQpkVhxEq-31" value="" style="endArrow=classic;html=1;rounded=0;exitX=0.5;exitY=0;exitDx=0;exitDy=0;entryX=0;entryY=1;entryDx=0;entryDy=0;" parent="1" source="NkPuISbnbZMCQpkVhxEq-4" target="NkPuISbnbZMCQpkVhxEq-20" edge="1">
          <mxGeometry width="50" height="50" relative="1" as="geometry">
            <mxPoint x="610" y="570" as="sourcePoint" />
            <mxPoint x="660" y="520" as="targetPoint" />
          </mxGeometry>
        </mxCell>
        <mxCell id="NkPuISbnbZMCQpkVhxEq-32" value="" style="endArrow=classic;html=1;rounded=0;exitX=0.225;exitY=0.254;exitDx=0;exitDy=0;exitPerimeter=0;" parent="1" source="NkPuISbnbZMCQpkVhxEq-23" target="NkPuISbnbZMCQpkVhxEq-20" edge="1">
          <mxGeometry width="50" height="50" relative="1" as="geometry">
            <mxPoint x="610" y="570" as="sourcePoint" />
            <mxPoint x="660" y="520" as="targetPoint" />
          </mxGeometry>
        </mxCell>
      </root>
    </mxGraphModel>
  </diagram>
</mxfile>
